{"accessors" : [{"bufferView" : 0, "byteOffset" : 0, "componentType" : 5123, "count" : 30720, "type" : "SCALAR", "max" : [23808], "min" : [0]}, {"bufferView" : 1, "byteOffset" : 0, "componentType" : 5126, "count" : 23809, "type" : "VEC3", "max" : [41.861000061035156, 82.39219665527344, 41.87590026855469], "min" : [-41.855098724365234, -1.3640999794006348, -41.91910171508789], "name" : "POSITION"}, {"bufferView" : 1, "byteOffset" : 12, "componentType" : 5126, "count" : 23809, "type" : "VEC2", "max" : [1.066499948501587, 0.04089999943971634], "min" : [-0.06650000065565109, -1.0408999919891357], "name" : "TEXCOORD_0"}, {"bufferView" : 1, "byteOffset" : 20, "componentType" : 5126, "count" : 23809, "type" : "VEC3", "max" : [0.999967098236084, 0.9999088644981384, 0.9994472861289978], "min" : [-0.9999486804008484, -0.9994533061981201, -0.999230146408081], "name" : "NORMAL"}], "asset" : {"generator" : "Aspose.3D 22.1", "version" : "2.0"}, "buffers" : [{"uri" : "data:application/octet-stream;base64,", "byteLength" : 1044488}], "bufferViews" : [{"buffer" : 0, "byteOffset" : 0, "byteLength" : 61440, "target" : 34963}, {"buffer" : 0, "byteOffset" : 61444, "byteLength" : 983040, "byteStride" : 32, "target" : 34962}], "meshes" : [{"primitives" : [{"attributes" : {"POSITION" : 1, "TEXCOORD_0" : 2, "NORMAL" : 3}, "indices" : 0, "mode" : 4}], "name" : ""}], "nodes" : [{"mesh" : 0, "name" : "Ball"}], "scene" : 0, "scenes" : [{"nodes" : [0]}]}