{
  "accessors": [
    {
      "bufferView": 2,
      "componentType": 5126,
      "count": 1464,
      "max": [
        0.4703219532966614,
        1.8984174728393555,
        2.457749843597412
      ],
      "min": [
        -0.9869258999824524,
        -2.187877655029297,
        -0.002574324607849121
      ],
      "type": "VEC3"
    },
    {
      "bufferView": 2,
      "byteOffset": 17568,
      "componentType": 5126,
      "count": 1464,
      "max": [
        1.0,
        1.0,
        1.0
      ],
      "min": [
        -1.0,
        -1.0,
        -1.0
      ],
      "type": "VEC3"
    },
    {
      "bufferView": 3,
      "componentType": 5126,
      "count": 1464,
      "max": [
        1.0,
        1.0,
        1.0,
        1.0
      ],
      "min": [
        -1.0,
        -1.0,
        -1.0,
        1.0
      ],
      "type": "VEC4"
    },
    {
      "bufferView": 1,
      "componentType": 5126,
      "count": 1464,
      "max": [
        0.9944029450416565,
        0.999046802520752
      ],
      "min": [
        0.012239089235663414,
        0.007609784137457609
      ],
      "type": "VEC2"
    },
    {
      "bufferView": 1,
      "byteOffset": 11712,
      "componentType": 5126,
      "count": 1464,
      "max": [
        0.9944029450416565,
        0.999046802520752
      ],
      "min": [
        0.012239089235663414,
        0.007609784137457609
      ],
      "type": "VEC2"
    },
    {
      "bufferView": 1,
      "byteOffset": 23424,
      "componentType": 5126,
      "count": 1464,
      "max": [
        0.9944029450416565,
        0.999046802520752
      ],
      "min": [
        0.012239089235663414,
        0.007609784137457609
      ],
      "type": "VEC2"
    },
    {
      "bufferView": 0,
      "componentType": 5125,
      "count": 2340,
      "type": "SCALAR"
    }
  ],
  "asset": {
    "extras": {
      "author": "VR.Space (https://sketchfab.com/vrspace01)",
      "license": "CC-BY-4.0 (http://creativecommons.org/licenses/by/4.0/)",
      "source": "https://sketchfab.com/3d-models/variety-of-books-9ecd80af3b7e4cd59efb4c141511a55b",
      "title": "Variety of Books"
    },
    "generator": "Sketchfab-12.68.0",
    "version": "2.0"
  },
  "bufferViews": [
    {
      "buffer": 0,
      "byteLength": 9360,
      "name": "floatBufferViews",
      "target": 34963
    },
    {
      "buffer": 0,
      "byteLength": 35136,
      "byteOffset": 9360,
      "byteStride": 8,
      "name": "floatBufferViews",
      "target": 34962
    },
    {
      "buffer": 0,
      "byteLength": 35136,
      "byteOffset": 44496,
      "byteStride": 12,
      "name": "floatBufferViews",
      "target": 34962
    },
    {
      "buffer": 0,
      "byteLength": 23424,
      "byteOffset": 79632,
      "byteStride": 16,
      "name": "floatBufferViews",
      "target": 34962
    }
  ],
  "buffers": [
    {
      "byteLength": 103056,
      "uri": "scene.bin"
    }
  ],
  "images": [
    {
      "uri": "textures/books_baseColor.png"
    },
    {
      "uri": "textures/books_metallicRoughness.png"
    },
    {
      "uri": "textures/books_normal.png"
    }
  ],
  "materials": [
    {
      "doubleSided": true,
      "name": "books",
      "normalTexture": {
        "index": 2
      },
      "pbrMetallicRoughness": {
        "baseColorTexture": {
          "index": 0
        },
        "metallicFactor": 0.0,
        "metallicRoughnessTexture": {
          "index": 1
        }
      }
    }
  ],
  "meshes": [
    {
      "name": "Cube_books_0",
      "primitives": [
        {
          "attributes": {
            "NORMAL": 1,
            "POSITION": 0,
            "TANGENT": 2,
            "TEXCOORD_0": 3,
            "TEXCOORD_1": 4,
            "TEXCOORD_2": 5
          },
          "indices": 6,
          "material": 0,
          "mode": 4
        }
      ]
    }
  ],
  "nodes": [
    {
      "children": [
        1
      ],
      "matrix": [
        1.0,
        0.0,
        0.0,
        0.0,
        0.0,
        2.220446049250313e-16,
        -1.0,
        0.0,
        0.0,
        1.0,
        2.220446049250313e-16,
        0.0,
        0.0,
        0.0,
        0.0,
        1.0
      ],
      "name": "Sketchfab_model"
    },
    {
      "children": [
        2
      ],
      "matrix": [
        0.009999999776482582,
        0.0,
        0.0,
        0.0,
        0.0,
        0.0,
        0.009999999776482582,
        0.0,
        0.0,
        -0.009999999776482582,
        0.0,
        0.0,
        0.0,
        0.0,
        0.0,
        1.0
      ],
      "name": "books01.fbx"
    },
    {
      "children": [
        3
      ],
      "name": "RootNode"
    },
    {
      "children": [
        4
      ],
      "matrix": [
        100.0,
        0.0,
        0.0,
        0.0,
        0.0,
        -1.629206793918314e-05,
        -99.99999999999868,
        0.0,
        0.0,
        99.99999999999868,
        -1.629206793918314e-05,
        0.0,
        0.0,
        0.0,
        0.0,
        1.0
      ],
      "name": "Cube"
    },
    {
      "mesh": 0,
      "name": "Cube_books_0"
    }
  ],
  "samplers": [
    {
      "magFilter": 9729,
      "minFilter": 9987,
      "wrapS": 10497,
      "wrapT": 10497
    }
  ],
  "scene": 0,
  "scenes": [
    {
      "name": "Sketchfab_Scene",
      "nodes": [
        0
      ]
    }
  ],
  "textures": [
    {
      "sampler": 0,
      "source": 0
    },
    {
      "sampler": 0,
      "source": 1
    },
    {
      "sampler": 0,
      "source": 2
    }
  ]
}
