{
  "accessors": [
    {
      "bufferView": 2,
      "componentType": 5126,
      "count": 682,
      "max": [
        58.44380187988281,
        70.8644027709961,
        39.187801361083984
      ],
      "min": [
        -44.768001556396484,
        -95.68569946289063,
        -3.1319000720977783
      ],
      "type": "VEC3"
    },
    {
      "bufferView": 2,
      "byteOffset": 8184,
      "componentType": 5126,
      "count": 682,
      "max": [
        0.9999641180038452,
        1.0,
        0.9999992847442627
      ],
      "min": [
        -1.0,
        -1.0,
        -0.9999487400054932
      ],
      "type": "VEC3"
    },
    {
      "bufferView": 1,
      "componentType": 5126,
      "count": 682,
      "max": [
        0.9983999729156494,
        0.9879999756813049
      ],
      "min": [
        0.014999999664723873,
        0.010599999688565731
      ],
      "type": "VEC2"
    },
    {
      "bufferView": 0,
      "componentType": 5125,
      "count": 1404,
      "type": "SCALAR"
    }
  ],
  "asset": {
    "extras": {
      "author": "luisservin89 (https://sketchfab.com/luisservin89)",
      "license": "CC-BY-4.0 (http://creativecommons.org/licenses/by/4.0/)",
      "source": "https://sketchfab.com/3d-models/magic-book-of-eden-5115ffc67b8d4ab8abb807a959ceb603",
      "title": "Magic Book of Eden"
    },
    "generator": "Sketchfab-12.68.0",
    "version": "2.0"
  },
  "bufferViews": [
    {
      "buffer": 0,
      "byteLength": 5616,
      "name": "floatBufferViews",
      "target": 34963
    },
    {
      "buffer": 0,
      "byteLength": 5456,
      "byteOffset": 5616,
      "byteStride": 8,
      "name": "floatBufferViews",
      "target": 34962
    },
    {
      "buffer": 0,
      "byteLength": 16368,
      "byteOffset": 11072,
      "byteStride": 12,
      "name": "floatBufferViews",
      "target": 34962
    }
  ],
  "buffers": [
    {
      "byteLength": 27440,
      "uri": "scene.bin"
    }
  ],
  "extensionsUsed": [
    "KHR_materials_unlit"
  ],
  "images": [
    {
      "uri": "textures/material_0_baseColor.png"
    }
  ],
  "materials": [
    {
      "alphaCutoff": 0.06,
      "alphaMode": "MASK",
      "doubleSided": true,
      "extensions": {
        "KHR_materials_unlit": {}
      },
      "name": "material_0",
      "pbrMetallicRoughness": {
        "baseColorTexture": {
          "index": 0
        },
        "metallicFactor": 0.0
      }
    }
  ],
  "meshes": [
    {
      "name": "Object_0",
      "primitives": [
        {
          "attributes": {
            "NORMAL": 1,
            "POSITION": 0,
            "TEXCOORD_0": 2
          },
          "indices": 3,
          "material": 0,
          "mode": 4
        }
      ]
    }
  ],
  "nodes": [
    {
      "children": [
        1
      ],
      "matrix": [
        1.0,
        0.0,
        0.0,
        0.0,
        0.0,
        2.220446049250313e-16,
        -1.0,
        0.0,
        0.0,
        1.0,
        2.220446049250313e-16,
        0.0,
        0.0,
        0.0,
        0.0,
        1.0
      ],
      "name": "Sketchfab_model"
    },
    {
      "children": [
        2
      ],
      "name": "9465b42cb8564e0186e2e2d50072b30e.obj.cleaner"
    },
    {
      "mesh": 0,
      "name": "Object_2"
    }
  ],
  "samplers": [
    {
      "magFilter": 9729,
      "minFilter": 9987,
      "wrapS": 10497,
      "wrapT": 10497
    }
  ],
  "scene": 0,
  "scenes": [
    {
      "name": "Sketchfab_Scene",
      "nodes": [
        0
      ]
    }
  ],
  "textures": [
    {
      "sampler": 0,
      "source": 0
    }
  ]
}
