{"accessors" : [{"bufferView" : 0, "byteOffset" : 0, "componentType" : 5123, "count" : 3732, "type" : "SCALAR", "max" : [3144], "min" : [0]}, {"bufferView" : 1, "byteOffset" : 0, "componentType" : 5126, "count" : 3145, "type" : "VEC3", "max" : [0.7739670276641846, 0.4767729938030243, 0.34487199783325195], "min" : [-0.5767859816551208, 0.07892599701881409, -0.5552039742469788], "name" : "POSITION"}, {"bufferView" : 1, "byteOffset" : 12, "componentType" : 5126, "count" : 3145, "type" : "VEC2", "max" : [0.9929609894752502, -0.006808999925851822], "min" : [0.01297799963504076, -0.9886860251426697], "name" : "TEXCOORD_0"}, {"bufferView" : 1, "byteOffset" : 20, "componentType" : 5126, "count" : 3145, "type" : "VEC3", "max" : [0.9983381628990173, 1.0000044107437134, 0.9983381628990173], "min" : [-0.9983381628990173, -1.0000044107437134, -0.9983381628990173], "name" : "NORMAL"}], "asset" : {"generator" : "Aspose.3D 22.1", "version" : "2.0"}, "buffers" : [{"uri" : "data:application/octet-stream;base64,", "byteLength" : 126896}], "bufferViews" : [{"buffer" : 0, "byteOffset" : 0, "byteLength" : 7464, "target" : 34963}, {"buffer" : 0, "byteOffset" : 7468, "byteLength" : 119424, "byteStride" : 32, "target" : 34962}], "meshes" : [{"primitives" : [{"attributes" : {"POSITION" : 1, "TEXCOORD_0" : 2, "NORMAL" : 3}, "indices" : 0, "mode" : 4}], "name" : ""}], "nodes" : [{"mesh" : 0, "name" : "burger_menu_Mesh"}], "scene" : 0, "scenes" : [{"nodes" : [0]}]}