{
  "accessors": [
    {
      "bufferView": 2,
      "componentType": 5126,
      "count": 7580,
      "max": [
        1.6940369606018066,
        2.4019875526428223,
        1.9758379459381104
      ],
      "min": [
        -3.0180163383483887,
        -6.208961486816406,
        0.015954136848449707
      ],
      "type": "VEC3"
    },
    {
      "bufferView": 2,
      "byteOffset": 90960,
      "componentType": 5126,
      "count": 7580,
      "max": [
        0.9999967813491821,
        1.0,
        1.0
      ],
      "min": [
        -0.9999639391899109,
        -1.0,
        -1.0
      ],
      "type": "VEC3"
    },
    {
      "bufferView": 1,
      "componentType": 5126,
      "count": 7580,
      "max": [
        491.7225646972656,
        3.7452685832977295
      ],
      "min": [
        -80.38329315185547,
        -1594.3438720703125
      ],
      "type": "VEC2"
    },
    {
      "bufferView": 0,
      "componentType": 5125,
      "count": 32604,
      "type": "SCALAR"
    }
  ],
  "asset": {
    "extras": {
      "author": "3D Share (https://sketchfab.com/3dsharesg)",
      "license": "CC-BY-4.0 (http://creativecommons.org/licenses/by/4.0/)",
      "source": "https://sketchfab.com/3d-models/telephone-7aeae41398f34c4fa5de50c2e6276b11",
      "title": "Telephone"
    },
    "generator": "Sketchfab-12.67.0",
    "version": "2.0"
  },
  "bufferViews": [
    {
      "buffer": 0,
      "byteLength": 130416,
      "name": "floatBufferViews",
      "target": 34963
    },
    {
      "buffer": 0,
      "byteLength": 60640,
      "byteOffset": 130416,
      "byteStride": 8,
      "name": "floatBufferViews",
      "target": 34962
    },
    {
      "buffer": 0,
      "byteLength": 181920,
      "byteOffset": 191056,
      "byteStride": 12,
      "name": "floatBufferViews",
      "target": 34962
    }
  ],
  "buffers": [
    {
      "byteLength": 372976,
      "uri": "scene.bin"
    }
  ],
  "images": [
    {
      "uri": "textures/Material_57_baseColor.png"
    },
    {
      "uri": "textures/Material_57_metallicRoughness.png"
    }
  ],
  "materials": [
    {
      "doubleSided": true,
      "name": "Material_57",
      "pbrMetallicRoughness": {
        "baseColorTexture": {
          "index": 0
        },
        "metallicFactor": 0.0,
        "metallicRoughnessTexture": {
          "index": 1
        }
      }
    }
  ],
  "meshes": [
    {
      "name": "Telephone_Material #57_0",
      "primitives": [
        {
          "attributes": {
            "NORMAL": 1,
            "POSITION": 0,
            "TEXCOORD_0": 2
          },
          "indices": 3,
          "material": 0,
          "mode": 4
        }
      ]
    }
  ],
  "nodes": [
    {
      "children": [
        1
      ],
      "matrix": [
        1.0,
        0.0,
        0.0,
        0.0,
        0.0,
        2.220446049250313e-16,
        -1.0,
        0.0,
        0.0,
        1.0,
        2.220446049250313e-16,
        0.0,
        0.0,
        0.0,
        0.0,
        1.0
      ],
      "name": "Sketchfab_model"
    },
    {
      "children": [
        2
      ],
      "matrix": [
        1.0,
        0.0,
        0.0,
        0.0,
        0.0,
        0.0,
        1.0,
        0.0,
        0.0,
        -1.0,
        0.0,
        0.0,
        0.0,
        0.0,
        0.0,
        1.0
      ],
      "name": "TLP.FBX"
    },
    {
      "children": [
        3
      ],
      "name": "RootNode"
    },
    {
      "children": [
        4
      ],
      "matrix": [
        0.9968946670831687,
        0.0,
        0.07874657288503635,
        0.0,
        0.07874657288503635,
        0.0,
        -0.9968946670831688,
        0.0,
        0.0,
        0.9999999403953552,
        0.0,
        0.0,
        0.0,
        0.0,
        0.0,
        1.0
      ],
      "name": "Telephone"
    },
    {
      "children": [
        5
      ],
      "matrix": [
        1.0,
        0.0,
        -0.0,
        0.0,
        0.0,
        1.0,
        0.0,
        0.0,
        0.0,
        0.0,
        1.0,
        0.0,
        0.6619911193847656,
        1.9034862518310547,
        -0.9958953857421875,
        1.0
      ],
      "name": "Object_4"
    },
    {
      "mesh": 0,
      "name": "Telephone_Material #57_0"
    }
  ],
  "samplers": [
    {
      "magFilter": 9729,
      "minFilter": 9987,
      "wrapS": 10497,
      "wrapT": 10497
    }
  ],
  "scene": 0,
  "scenes": [
    {
      "name": "Sketchfab_Scene",
      "nodes": [
        0
      ]
    }
  ],
  "textures": [
    {
      "sampler": 0,
      "source": 0
    },
    {
      "sampler": 0,
      "source": 1
    }
  ]
}
